<?xml version="1.0" encoding="utf-8"?>
<!-- Generator: Adobe Illustrator 25.0.0, SVG Export Plug-In . SVG Version: 6.00 Build 0)  -->
<svg version="1.1" id="Layer_1" xmlns="http://www.w3.org/2000/svg" xmlns:xlink="http://www.w3.org/1999/xlink" x="0px" y="0px"
	 viewBox="0 0 145 102.6" style="enable-background:new 0 0 145 102.6;" xml:space="preserve">
<style type="text/css">
	.st0{opacity:0.65;}
	.st1{fill:#FFFFFF;}
	.st2{opacity:0.75;}
</style>
<g class="st0">
	<path class="st1" d="M137.6,29.9c4.5,0.1,7.1,2.9,6.4,7.2c-0.7,4.9-1.6,9.7-2.4,14.5c-1.1,6.5-2.3,13.1-3.4,19.6
		c-1.5,8.5-2.9,17-4.5,25.5c-0.6,3.3-2.1,4.5-5.5,4.7c-1.8,0.1-3.6,0.1-5.4,0.1c-16.8,0-33.6,0-50.4,0c-17.6,0-35.1,0-52.7,0
		c-1.2,0-2.3,0-3.5-0.1c-2.8-0.3-4.5-1.6-5-4.4C10,90.2,8.8,83.3,7.7,76.5c-1.1-6.3-2.2-12.6-3.3-18.9C3.2,50.8,1.9,44,0.9,37.1
		c-0.7-4.5,1.9-7.2,6.4-7.2C7.3,29.9,136.8,29.9,137.6,29.9z"/>
</g>
<g class="st2">
	<path class="st1" d="M11.8,20.8v6.5h4.8v-2.8c0,0,0-3.7,3.7-3.7H124c3.7,0,3.7,3.7,3.7,3.7v2.8h4.8v-2.8c0-8.5-8.5-8.5-8.5-8.5
		H70.8c0,0-2.9,0.3-4.1-2.4L63,6.9c0,0-2.1-5.3-8.9-5.3s-32.6,0-32.6,0s-9.7-0.5-9.7,9.9L11.8,20.8z"/>
</g>
</svg>
