<?xml version="1.0" encoding="utf-8"?>
<!DOCTYPE svg PUBLIC "-//W3C//DTD SVG 1.1//EN" "http://www.w3.org/Graphics/SVG/1.1/DTD/svg11.dtd">
<svg version="1.1" xmlns="http://www.w3.org/2000/svg" xmlns:xlink="http://www.w3.org/1999/xlink" x="0px" y="0px" viewBox="0 0 1000 1000" enable-background="new 0 0 1000 1000" xml:space="preserve">
<g><g transform="translate(0.000000,511.000000) scale(0.100000,-0.100000)"><path d="M5752.7,3148.6c-734.1-36.4-1424.2-429.4-1824.8-1038.9c-59.4-90.1-111.2-168.7-115-172.5c-1.9-3.8-70.9,5.7-149.5,23c-185.9,42.2-538.6,42.2-734.1,1.9c-323.9-65.2-594.2-214.7-858.7-477.3c-256.8-254.9-381.4-467.7-467.7-803.1l-32.6-132.3l-174.4-44.1C912.8,384.6,493,41.5,270.7-412.7C138.4-683,102-840.2,100.1-1169.9c-1.9-331.6,36.4-502.2,170.6-776.3c233.9-473.5,669-816.5,1198-941.1c134.2-32.6,346.9-34.5,3114.8-42.2c3181.9-5.8,3390.8-1.9,3709,82.4c216.6,57.5,555.9,220.4,728.4,352.7c164.8,124.6,412.1,383.4,513.7,538.6c322,488.8,439,1094.5,320.1,1658c-162.9,776.3-795.5,1443.3-1560.3,1646.5c-97.7,26.8-182.1,51.8-184,53.7c-1.9,3.8-23,67.1-47.9,139.9C7744.2,2529.5,6782,3198.5,5752.7,3148.6z M6383.3,2450.9c619.1-207,1065.7-734.1,1161.6-1374.3c9.6-70.9,23-155.3,28.8-187.9l9.6-59.4l178.3-13.4c216.6-17.3,444.7-69,596.1-136.1c339.3-149.5,628.7-437,785.9-780.1c90.1-193.6,124.6-337.3,138-561.6c46-747.5-458.1-1426.1-1190.3-1602.5c-143.8-34.5-233.9-36.4-1355.2-36.4H5532.2v611.4v611.5h527.1c454.3,0,534.8,3.8,575,30.7c57.5,38.3,61.3,95.8,11.5,178.3c-36.4,55.6-1130.9,1466.3-1290,1658c-86.3,105.4-170.6,138-274.1,109.3c-76.7-21.1-63.3-5.7-870.2-1037c-621-797.4-649.8-841.5-552-906.6c42.2-26.8,120.8-30.7,577-32.6l529-1.9v-609.6v-611.4H3209.1c-1301.5,0-1575.6,5.8-1663.8,28.8c-308.6,82.4-592.3,318.2-726.5,605.7C604.2-1208.2,688.5-736.7,1045-382.1c247.3,245.3,452.4,323.9,860.6,323.9h253v207c1.9,406.4,97.8,663.2,343.1,904.7c230,228.1,469.6,325.8,789.7,325.8c233.8,0,337.4-28.8,607.6-166.8l235.8-120.8l19.2,53.7c11.5,28.8,46,118.8,76.7,201.3c203.2,557.8,575,927.7,1106,1106C5656.8,2560.2,6059.3,2560.2,6383.3,2450.9z"/></g></g>
</svg>